<svg width="118" height="39" viewBox="0 0 118 39" fill="none" xmlns="http://www.w3.org/2000/svg">
<path d="M19.0927 38.8417C17.9675 38.8417 16.983 38.4371 16.1391 37.6279C15.3304 36.8539 14.926 35.6225 14.926 33.9337C14.926 32.9486 15.0843 31.6996 15.4007 30.1867C15.7172 28.6739 16.104 27.1083 16.5611 25.4898C17.0533 23.8714 17.5456 22.429 18.0378 21.1624L19.9366 16.2544C18.2136 17.6265 16.3853 18.8755 14.4514 20.0014C12.5526 21.1272 10.7067 22.0244 8.91343 22.6928C7.15536 23.3261 5.59067 23.6428 4.21938 23.6428C2.77776 23.6428 1.70533 23.3789 1.0021 22.8512C0.334034 22.2882 0 21.567 0 20.6874C0 19.7727 0.316453 18.7875 0.94936 17.7321C1.58227 16.6414 2.39098 15.6035 3.3755 14.6184C4.39518 13.6333 5.43245 12.8417 6.48729 12.2436C6.76858 12.0677 7.10262 11.9445 7.48939 11.8742H7.75311C7.92891 11.8742 8.05198 11.9269 8.1223 12.0325C8.19263 12.138 8.1223 12.2788 7.91133 12.4547C7.13778 13.0528 6.34665 13.7916 5.53793 14.6712C4.76438 15.5156 4.09631 16.4303 3.53373 17.4154C3.00631 18.4005 2.7426 19.3681 2.7426 20.318C2.7426 21.3735 3.32276 21.9012 4.48309 21.9012C6.10052 21.9012 7.77069 21.5318 9.4936 20.793C11.2517 20.0189 12.957 19.0514 14.6096 17.8904C16.2973 16.6942 17.862 15.4804 19.3037 14.249C20.7453 12.9824 21.9583 11.8566 22.9429 10.8714C23.5054 9.85115 24.0856 8.86603 24.6834 7.9161C25.3163 6.96617 25.914 6.17456 26.4766 5.54127C27.0392 4.90798 27.5139 4.59134 27.9006 4.59134C28.3929 4.59134 28.9906 4.76725 29.6939 5.11908C30.0806 5.29499 30.3619 5.52368 30.5377 5.80514C30.7136 6.05142 30.7311 6.26252 30.5905 6.43843C30.0279 7.21245 29.2719 8.3207 28.3226 9.76319C27.3732 11.1705 26.3359 12.7889 25.2108 14.6184C24.1208 16.4479 23.0659 18.4005 22.0462 20.4763C21.0266 22.5169 20.1651 24.5751 19.4619 26.6509C19.2861 27.1434 19.0575 27.8647 18.7762 28.8146C18.4949 29.7645 18.2312 30.7673 17.9851 31.8227C17.7741 32.8782 17.6686 33.8457 17.6686 34.7253C17.6686 36.2733 18.1082 37.0474 18.9872 37.0474C19.3388 37.0474 19.7432 36.9594 20.2003 36.7835C20.6574 36.6076 21.22 36.2909 21.888 35.8336C22.8725 35.1651 24.1735 34.0744 25.7909 32.5616C27.4084 31.0135 29.1137 29.3424 30.9069 27.548C33.6144 24.839 36.3921 21.9188 39.2402 18.7876C42.0883 15.6563 44.9364 12.7537 47.7845 10.0798C50.2458 7.79296 52.7422 5.78755 55.2738 4.0636C57.8055 2.30446 60.5305 1.07307 63.4489 0.369417C64.0115 0.228686 64.5741 0.140729 65.1366 0.105547C65.6992 0.0351822 66.2618 0 66.8244 0C67.1408 0 67.4573 0.0175911 67.7738 0.0527733C68.0902 0.0527733 68.4242 0.0879556 68.7758 0.15832C70.112 0.439782 71.0965 1.05548 71.7294 2.00541C72.3975 2.95534 72.7315 4.0636 72.7315 5.33017C72.7315 7.01894 72.1514 8.83085 70.991 10.7659C69.8659 12.7009 68.1957 14.4249 65.9805 15.9378C65.875 16.0081 65.7695 16.0609 65.6641 16.0961C65.5586 16.1313 65.4531 16.1664 65.3476 16.2016C65.1015 16.2016 64.9784 16.0785 64.9784 15.8322C64.9784 15.4452 65.3124 15.023 65.9805 14.5656C66.9299 13.9323 67.7738 13.1231 68.5121 12.138C69.2857 11.1529 69.8834 10.115 70.3054 9.02436C70.7625 7.93369 70.991 6.93099 70.991 6.01624C70.991 5.31258 70.8152 4.69689 70.4636 4.16915C70.1471 3.60622 69.6373 3.20162 68.9341 2.95534C68.5473 2.88498 68.1605 2.8322 67.7738 2.79702C67.387 2.76184 67.0002 2.74425 66.6134 2.74425C66.1915 2.74425 65.7695 2.77943 65.3476 2.84979C64.9608 2.92016 64.5213 3.00812 64.0291 3.11366C61.7084 3.67659 59.2823 4.6617 56.7506 6.06901C54.2542 7.47632 51.8456 9.1475 49.5249 11.0825C47.9427 12.3843 46.3956 13.7916 44.8836 15.3045C43.3717 16.8173 41.8949 18.3478 40.4533 19.8958C39.0117 21.4087 37.6052 22.9391 36.2339 24.4871C34.8978 26.0352 33.5792 27.5304 32.2782 28.9729C30.6608 30.7673 29.0434 32.4384 27.426 33.9865C25.8085 35.5345 24.2263 36.8011 22.6792 37.7862C22.1166 38.1028 21.5188 38.3491 20.8859 38.525C20.2882 38.7361 19.6904 38.8417 19.0927 38.8417Z" fill="#E6E6E6"/>
<path d="M55.039 19.9486C54.617 19.9486 54.3182 19.843 54.1424 19.6319C53.9666 19.3857 53.8786 19.0866 53.8786 18.7348C53.8786 18.3478 53.949 18.0135 54.0896 17.7321C54.2303 17.4506 54.5995 17.2043 55.1972 16.9932C55.8301 16.7821 56.4982 16.6238 57.2014 16.5183C57.9398 16.4127 58.5024 16.3599 58.8892 16.3599C59.3111 16.3599 59.5221 16.4479 59.5221 16.6238C59.5221 16.7645 59.4342 16.8877 59.2584 16.9932C59.188 17.0284 59.0825 17.0812 58.9419 17.1516C58.8364 17.2219 58.6958 17.2923 58.52 17.3627C58.2738 17.4682 57.9925 17.6089 57.6761 17.7848C57.3948 17.9256 57.219 18.1015 57.1487 18.3126C56.9377 18.77 56.6388 19.157 56.252 19.4736C55.8653 19.7903 55.4609 19.9486 55.039 19.9486ZM46.2838 37.7862C45.2992 37.7862 44.4026 37.5927 43.5939 37.2057C42.8204 36.8187 42.4336 36.0798 42.4336 34.9892C42.4336 33.9337 42.6797 32.9134 43.172 31.9283C43.6642 30.9432 44.2796 30.0108 45.018 29.1313C45.7915 28.2517 46.5299 27.4777 47.2331 26.8092C47.8309 26.2815 48.3056 25.8593 48.6572 25.5426C48.622 25.5074 48.6044 25.4371 48.6044 25.3315C48.6044 25.0501 48.7275 24.7686 48.9736 24.4871C49.3604 23.9242 49.9933 23.4493 50.8723 23.0622C51.0833 22.9919 51.2943 22.9567 51.5052 22.9567C51.9623 22.9567 52.4194 23.0622 52.8765 23.2733C53.3336 23.4493 53.5622 23.7483 53.5622 24.1705C53.5622 24.4168 53.4743 24.6455 53.2985 24.8566C53.1227 25.0677 52.9644 25.226 52.8238 25.3315C52.5425 25.5426 52.103 25.912 51.5052 26.4398C50.9427 26.9323 50.3273 27.5129 49.6593 28.1813C48.9912 28.8146 48.3407 29.4479 47.7078 30.0812C47.1101 30.6793 46.653 31.1894 46.3365 31.6116C45.1059 33.1949 44.4905 34.3911 44.4905 35.2003C44.4905 35.5521 44.6312 35.8512 44.9125 36.0974C45.2289 36.3085 45.7739 36.4141 46.5475 36.4141C47.7781 36.4141 48.9912 36.2206 50.1867 35.8336C51.4173 35.4114 52.5425 34.9364 53.5622 34.4087C54.4061 33.9865 55.1972 33.5115 55.9356 32.9838C56.7091 32.456 57.4651 31.9107 58.2035 31.3478C58.9419 30.7497 59.6803 30.134 60.4187 29.5007C61.1922 28.8674 61.9658 28.2341 62.7393 27.6008C62.8448 27.5656 62.9679 27.548 63.1085 27.548C63.3898 27.548 63.5305 27.6712 63.5305 27.9175C63.5305 28.1286 63.4426 28.3221 63.2668 28.498C63.0558 28.7794 62.6163 29.2368 61.9482 29.8701C61.2801 30.5034 60.4538 31.2246 59.4693 32.0338C58.52 32.843 57.4475 33.6346 56.252 34.4087C55.0566 35.1827 53.8259 35.8512 52.5601 36.4141C51.892 36.6955 50.9602 36.9946 49.7648 37.3112C48.5693 37.6279 47.4089 37.7862 46.2838 37.7862Z" fill="#E6E6E6"/>
<path d="M57.494 39C56.8962 39 56.5973 38.7185 56.5973 38.1556C56.5973 37.8038 56.6852 37.4168 56.8611 36.9946C57.072 36.5724 57.3181 36.115 57.5994 35.6225C58.0565 34.8133 58.5664 33.9689 59.129 33.0893C59.7267 32.2097 60.2366 31.4885 60.6585 30.9256C61.0101 30.4682 61.5024 29.8173 62.1353 28.9729C62.7682 28.1286 63.3659 27.2314 63.9285 26.2815C64.7021 25.0149 65.0888 23.9594 65.0888 23.115C65.0888 22.6576 64.9482 22.3058 64.6669 22.0595C64.5263 21.9188 64.3856 21.7605 64.245 21.5846C64.1043 21.3735 64.034 21.1976 64.034 21.0568C64.034 20.705 64.1746 20.5291 64.4559 20.5291C64.7372 20.5291 65.0009 20.6346 65.2471 20.8457C65.4932 20.9865 65.7569 21.18 66.0382 21.4263C66.3547 21.6725 66.6359 21.954 66.8821 22.2706C66.9876 22.4114 67.093 22.5521 67.1985 22.6928C67.3392 22.7984 67.4447 22.9391 67.515 23.115C67.6205 23.2909 67.7084 23.4844 67.7787 23.6955C67.849 23.8714 67.8842 24.0825 67.8842 24.3288C67.8842 24.8214 67.6732 25.4195 67.2513 26.1231C66.6184 27.2138 65.8624 28.2341 64.9834 29.184C64.1395 30.0988 63.3132 31.0135 62.5045 31.9283C62.399 32.069 62.2759 32.2097 62.1353 32.3505C62.0298 32.456 61.9243 32.5792 61.8188 32.7199C63.1901 31.4533 64.6669 30.1516 66.2492 28.8146C67.8666 27.4425 69.2731 26.3694 70.4685 25.5954C70.8553 25.3491 71.3652 25.1204 71.9981 24.9093C72.631 24.6631 73.2287 24.5399 73.7913 24.5399C74.3187 24.5399 74.7758 24.6982 75.1626 25.0149C75.5845 25.2963 75.7955 25.8417 75.7955 26.6509C75.7955 27.3545 75.6549 28.1637 75.3736 29.0785C75.0923 29.9581 74.811 30.7673 74.5297 31.5061C74.2836 32.069 74.0902 32.6143 73.9495 33.1421C73.8089 33.6346 73.7386 34.0744 73.7386 34.4614C73.7386 35.6928 74.4066 36.3085 75.7428 36.3085C76.0944 36.3085 76.4987 36.2733 76.9558 36.203C77.4481 36.0974 77.9755 35.9391 78.5381 35.728C80.3313 35.0595 82.1422 34.1272 83.9705 32.931C85.8341 31.7348 87.5043 30.521 88.9811 29.2896C89.1569 29.1488 89.3327 29.0257 89.5085 28.9202C89.6843 28.7794 89.8425 28.6563 89.9832 28.5507C90.159 28.41 90.3172 28.2869 90.4578 28.1813C90.6337 28.0406 90.827 27.8823 91.038 27.7064C91.249 27.636 91.3896 27.6008 91.4599 27.6008C91.6709 27.6008 91.7764 27.724 91.7764 27.9702C91.7764 28.2165 91.7061 28.4276 91.5654 28.6035C91.3545 28.885 90.8446 29.3951 90.0359 30.134C89.2272 30.8728 88.2251 31.6996 87.0296 32.6143C85.8693 33.5291 84.5859 34.4087 83.1794 35.253C81.8081 36.0974 80.4192 36.7659 79.0128 37.2585C77.747 37.6807 76.4284 37.8917 75.0571 37.8917C74.0023 37.8917 73.0529 37.6455 72.209 37.1529C71.3652 36.6604 70.9432 35.816 70.9432 34.6198C70.9432 33.9161 71.119 33.0893 71.4706 32.1394C71.7168 31.5061 71.9805 30.8552 72.2618 30.1867C72.5782 29.5183 72.7716 28.8498 72.8419 28.1813C72.8771 28.0406 72.8947 27.9175 72.8947 27.8119C72.8947 27.6712 72.8947 27.5656 72.8947 27.4953C72.8947 27.0731 72.8244 26.8092 72.6837 26.7037C72.5782 26.5981 72.4552 26.5453 72.3145 26.5453C71.9629 26.5453 71.5234 26.6861 70.996 26.9675C70.5037 27.2138 70.0466 27.4777 69.6247 27.7591C69.2379 28.0054 68.6226 28.498 67.7787 29.2368C66.97 29.9405 66.0734 30.7497 65.0888 31.6644C64.1395 32.544 63.2253 33.3884 62.3462 34.1976C61.7837 34.7253 61.2387 35.2706 60.7112 35.8336C60.219 36.3613 59.7619 36.8539 59.3399 37.3112C58.8828 37.8038 58.4961 38.2084 58.1796 38.525C57.8632 38.8417 57.6346 39 57.494 39Z" fill="#E6E6E6"/>
<path d="M90.2576 38.3139C88.9566 38.3139 88.0073 37.9621 87.4095 37.2585C86.8118 36.5548 86.5129 35.7632 86.5129 34.8836C86.5129 34.6022 86.5305 34.3383 86.5656 34.092C86.636 33.8106 86.7063 33.5291 86.7766 33.2476C87.0227 32.544 87.4622 31.682 88.0952 30.6617C88.7632 29.6414 89.5016 28.6739 90.3103 27.7591C91.119 26.8092 91.8926 26.1231 92.631 25.7009C92.2794 25.3139 92.1036 24.839 92.1036 24.276C92.1036 23.0095 93.0881 22.0771 95.0571 21.479C95.5494 21.3031 96.0768 21.1976 96.6394 21.1624C97.2371 21.092 97.8525 21.0568 98.4854 21.0568C99.2941 21.0568 100.085 21.1096 100.859 21.2152C101.984 21.3911 102.968 21.8836 103.812 22.6928C104.656 23.4668 105.148 24.4168 105.289 25.5426C105.359 25.9296 105.359 26.3166 105.289 26.7037C105.852 26.7388 106.397 26.7564 106.924 26.7564C107.487 26.7212 107.997 26.7037 108.454 26.7037C109.508 26.7037 110.581 26.6333 111.671 26.4926C112.796 26.3166 113.816 26.1231 114.73 25.912C115.679 25.6658 116.383 25.4195 116.84 25.1732C117.121 25.0677 117.332 25.0149 117.473 25.0149C117.754 25.0149 117.93 25.1204 118 25.3315C118 25.6834 117.666 26.0176 116.998 26.3342C116.224 26.6861 115.046 27.0379 113.464 27.3897C111.882 27.7415 110.212 27.9526 108.454 28.023C108.032 28.0582 107.522 28.0934 106.924 28.1286C106.362 28.1286 105.729 28.1286 105.025 28.1286C104.639 29.5359 103.883 30.8552 102.757 32.0866C101.667 33.318 100.384 34.4087 98.9073 35.3586C97.4305 36.2733 95.9186 36.9946 94.3715 37.5223C92.8595 38.0501 91.4882 38.3139 90.2576 38.3139ZM103.39 26.5981C103.566 26.0704 103.654 25.613 103.654 25.226C103.654 24.5927 103.39 24.0474 102.863 23.59C102.371 23.1326 101.421 22.9039 100.015 22.9039C98.5733 22.9039 97.3602 23.115 96.3757 23.5372C95.4263 23.9242 94.9516 24.276 94.9516 24.5927C94.9516 24.6631 95.022 24.7686 95.1626 24.9093C95.3033 25.0501 95.5845 25.1908 96.0065 25.3315C97.1317 25.6834 98.3271 25.9648 99.593 26.1759C100.859 26.387 102.125 26.5277 103.39 26.5981ZM91.2597 36.7835C91.9278 36.6428 92.7541 36.3261 93.7386 35.8336C94.7583 35.341 95.8131 34.7253 96.9031 33.9865C98.0283 33.2124 99.0655 32.3681 100.015 31.4533C100.999 30.5737 101.896 29.4479 102.705 28.0758C101.404 28.0758 100.12 28.0582 98.8546 28.023C97.6239 27.9878 96.5163 27.7415 95.5318 27.2842C95.1099 27.3193 94.5121 27.6536 93.7386 28.2869C92.965 28.885 92.1915 29.6414 91.4179 30.5562C90.6444 31.4709 89.9763 32.4032 89.4137 33.3532C88.8863 34.2679 88.6226 35.0595 88.6226 35.728C88.6226 36.0447 88.7281 36.3261 88.939 36.5724C89.1852 36.7835 89.6071 36.889 90.2048 36.889C90.3455 36.889 90.5037 36.889 90.6795 36.889C90.8553 36.8539 91.0487 36.8187 91.2597 36.7835Z" fill="#E6E6E6"/>
<path d="M53.9416 16.1774C53.8829 16.1774 53.8458 16.2053 53.8304 16.2609C53.8118 16.3135 53.8026 16.4836 53.8026 16.7711H60.0327C60.0327 16.4836 60.0235 16.3135 60.0049 16.2609C59.9864 16.2053 59.9477 16.1774 59.889 16.1774H53.9416ZM59.8519 15.5837C60.0095 15.5837 60.1316 15.6177 60.2181 15.6858C60.3016 15.7507 60.3634 15.8481 60.4036 15.978C60.4221 16.0398 60.4376 16.1156 60.4499 16.2053C60.4592 16.2949 60.4669 16.4186 60.4731 16.5763C60.4762 16.734 60.4777 16.8732 60.4777 16.9938V17.3649H53.3575C53.3575 17.2381 53.3591 17.1113 53.3622 16.9845C53.3622 16.8546 53.3637 16.7232 53.3668 16.5902C53.373 16.3181 53.3931 16.1171 53.4271 15.9873C53.4642 15.8543 53.5244 15.7538 53.6079 15.6858C53.6882 15.6177 53.8041 15.5837 53.9555 15.5837H59.8519Z" fill="#898888"/>
<path d="M53.8026 13.8026V14.3963H56.4726V13.8026H56.9176V14.3963H60.0327V13.8026H60.4777V14.99H53.3575V13.8026H53.8026Z" fill="#898888"/>
<path d="M53.3575 12.7636H60.0327V12.1699H60.4777V13.3573H53.3575V12.7636Z" fill="#898888"/>
<path d="M10.6174 14.3053C10.783 14.3053 10.9735 14.3716 11.1889 14.5042C11.1889 14.6202 11.1309 14.9434 11.0149 15.4738C10.783 16.4683 10.6174 16.9821 10.518 17.0153C9.98789 17.1976 9.44125 17.3716 8.87804 17.5374C8.3314 17.7031 7.6688 17.786 6.89024 17.786C6.12825 17.786 5.40768 17.6534 4.72852 17.3882C4.04935 17.1064 3.45301 16.7252 2.9395 16.2445C1.82965 15.2003 1.27472 13.9075 1.27472 12.366C1.27472 10.808 1.82965 9.47368 2.9395 8.36316C4.03279 7.26921 5.36627 6.72224 6.93994 6.72224C8.26513 6.72224 9.40812 6.82169 10.3689 7.02059L10.9155 9.50683C10.9155 9.55655 10.8658 9.61457 10.7664 9.68087C10.6836 9.73059 10.5842 9.75545 10.4683 9.75545C10.3689 9.75545 10.3026 9.73059 10.2695 9.68087C10.0873 9.11732 9.84709 8.68637 9.54892 8.38802C8.93602 7.7416 8.11605 7.41839 7.08902 7.41839C5.99573 7.41839 5.17577 7.8742 4.62913 8.78582C4.14874 9.58142 3.90855 10.6174 3.90855 11.8936C3.90855 13.3191 4.18187 14.4959 4.72852 15.4241C5.37455 16.518 6.27734 17.065 7.43689 17.065C8.54674 17.065 9.3667 16.6341 9.89678 15.7722C10.1618 15.3744 10.344 15.0429 10.4434 14.7777C10.5428 14.4959 10.6008 14.3384 10.6174 14.3053Z" fill="#898888"/>
<path d="M14.936 16.6423C15.1513 16.6423 15.317 16.6009 15.4329 16.518C15.5654 16.4186 15.6317 16.344 15.6317 16.2943V14.0069C15.4495 14.0898 15.259 14.1727 15.0602 14.2556C14.878 14.3219 14.6875 14.4213 14.4887 14.5539C14.1243 14.8025 13.9421 15.134 13.9421 15.5484C13.9586 15.9628 14.0746 16.2528 14.2899 16.4186C14.5053 16.5678 14.7206 16.6423 14.936 16.6423ZM18.6134 16.3937C18.6962 16.4434 18.7376 16.518 18.7376 16.6175C18.7376 16.7169 18.7128 16.8164 18.6631 16.9158C18.5637 17.0153 18.3898 17.1479 18.1413 17.3136C17.694 17.612 17.3213 17.7612 17.0231 17.7612C16.725 17.7612 16.4517 17.6783 16.2032 17.5125C15.9713 17.3302 15.8139 17.1396 15.7311 16.9407C15.4992 17.1727 15.1679 17.3716 14.7372 17.5374C14.3231 17.7031 14 17.786 13.7681 17.786C13.5362 17.786 13.2877 17.728 13.0227 17.612C12.7577 17.496 12.534 17.3468 12.3518 17.1645C11.9377 16.7501 11.7306 16.3357 11.7306 15.9213C11.7306 15.507 11.8135 15.1838 11.9791 14.9517C12.1613 14.7031 12.3435 14.5539 12.5258 14.5042C12.7245 14.4379 12.9482 14.355 13.1966 14.2556C13.4617 14.1561 13.7433 14.0484 14.0415 13.9323C14.4224 13.7997 14.9525 13.6008 15.6317 13.3356V12.5649C15.6317 12.1505 15.5406 11.7776 15.3584 11.4461C15.1762 11.098 14.936 10.924 14.6378 10.924C14.3396 10.924 14.1243 11.0566 13.9918 11.3218C13.8758 11.587 13.793 11.8605 13.7433 12.1422C13.6108 12.7224 13.2877 13.0124 12.7742 13.0124C12.5589 13.0124 12.3601 12.9461 12.1779 12.8135C12.0122 12.6644 11.9294 12.5069 11.9294 12.3411C11.9294 12.1091 12.004 11.8439 12.153 11.5455C12.3353 11.3632 12.6334 11.1643 13.0476 10.9489C13.8924 10.5179 14.6461 10.3024 15.3087 10.3024C15.9878 10.3024 16.5593 10.5345 17.0231 10.9986C17.5035 11.4627 17.7437 12.0677 17.7437 12.8135V15.8716C17.7437 16.1037 17.7851 16.2777 17.868 16.3937C17.9508 16.4932 18.0419 16.5429 18.1413 16.5429C18.2572 16.5429 18.3566 16.518 18.4394 16.4683L18.6134 16.3937Z" fill="#898888"/>
<path d="M23.5139 17.7363C22.6856 17.6534 21.9319 17.612 21.2527 17.612C20.5901 17.612 19.8447 17.6534 19.0165 17.7363C18.9833 17.6866 18.9668 17.5871 18.9668 17.4379C18.9668 17.2888 18.9833 17.181 19.0165 17.1147C19.3643 17.1147 19.6211 17.0816 19.7867 17.0153C19.9524 16.9324 20.0435 16.8661 20.0601 16.8164C20.1429 16.6506 20.1843 16.4434 20.1843 16.1948C20.2009 15.9462 20.2092 15.6396 20.2092 15.2749V8.51233C20.2092 8.14768 20.1843 7.91563 20.1346 7.81618C20.0849 7.70016 20.0104 7.62557 19.911 7.59242C19.8282 7.55927 19.7371 7.53441 19.6377 7.51784C19.4058 7.45154 19.2318 7.41839 19.1159 7.41839C19.0827 7.41839 19.0579 7.3438 19.0413 7.19462C19.0413 7.02887 19.0662 6.92942 19.1159 6.89627C20.2257 6.78025 21.1948 6.58964 22.023 6.32444C22.1721 6.27471 22.2549 6.24985 22.2715 6.24985C22.3874 6.283 22.4703 6.38245 22.52 6.5482C22.4868 6.7471 22.4537 6.93771 22.4206 7.12004C22.3709 7.36866 22.346 7.73331 22.346 8.21398V15.2749C22.346 16.1037 22.3709 16.5843 22.4206 16.7169C22.4703 16.833 22.5365 16.9158 22.6194 16.9656C22.7187 16.9987 22.8181 17.0319 22.9175 17.065C23.0997 17.0982 23.2985 17.1147 23.5139 17.1147C23.547 17.181 23.5636 17.2888 23.5636 17.4379C23.5636 17.5871 23.547 17.6866 23.5139 17.7363Z" fill="#898888"/>
<path d="M26.9839 10.6256C26.9508 10.7085 26.8928 11.0152 26.81 11.5455V15.2749C26.81 16.1037 26.8348 16.5843 26.8845 16.7169C26.9342 16.833 27.0005 16.9158 27.0833 16.9656C27.1661 16.9987 27.2572 17.0319 27.3566 17.065C27.5223 17.0982 27.6962 17.1147 27.8784 17.1147C27.9116 17.181 27.9281 17.2888 27.9281 17.4379C27.9281 17.5871 27.9116 17.6866 27.8784 17.7363C27.0502 17.6534 26.3379 17.612 25.7415 17.612C25.0624 17.612 24.3087 17.6534 23.4804 17.7363C23.4473 17.6866 23.4307 17.5871 23.4307 17.4379C23.4307 17.2888 23.4473 17.181 23.4804 17.1147C23.8283 17.1147 24.085 17.0816 24.2507 17.0153C24.4163 16.9324 24.5157 16.8661 24.5489 16.8164C24.6317 16.6175 24.6731 16.1037 24.6731 15.2749V13.1367C24.6731 13.0041 24.6565 12.8052 24.6234 12.54C24.5903 12.2748 24.5571 12.1091 24.524 12.0428C24.4081 11.8273 24.0602 11.7196 23.4804 11.7196C23.4473 11.703 23.4307 11.6201 23.4307 11.471C23.4473 11.3052 23.4721 11.2223 23.5053 11.2223C24.1347 11.1726 24.7476 11.0566 25.344 10.8743C25.9403 10.6754 26.3959 10.5013 26.7106 10.3522C26.7603 10.3687 26.8183 10.4102 26.8845 10.4765C26.9508 10.5428 26.9839 10.5925 26.9839 10.6256ZM24.3998 7.5427C24.3998 7.2112 24.5075 6.93771 24.7228 6.72224C24.9547 6.49019 25.2363 6.37416 25.5676 6.37416C25.8989 6.37416 26.1805 6.49019 26.4124 6.72224C26.6443 6.93771 26.7603 7.2112 26.7603 7.5427C26.7603 7.8742 26.6443 8.15597 26.4124 8.38802C26.1805 8.62007 25.8989 8.73609 25.5676 8.73609C25.2363 8.73609 24.9547 8.62007 24.7228 8.38802C24.5075 8.15597 24.3998 7.8742 24.3998 7.5427Z" fill="#898888"/>
<path d="M33.1536 17.3882V17.1147C33.1536 17.0484 33.1288 17.0319 33.0791 17.065C33.0294 17.0982 32.9383 17.1562 32.8057 17.239C32.6732 17.3219 32.5159 17.4048 32.3336 17.4877C31.4888 17.8689 30.702 17.8772 29.9731 17.5125C29.2277 17.1645 28.6976 16.5678 28.3829 15.7224C28.2172 15.3081 28.1344 14.8108 28.1344 14.2307C28.1344 13.634 28.2835 13.087 28.5817 12.5898C28.8964 12.0759 29.2774 11.6533 29.7247 11.3218C30.1719 10.9903 30.6357 10.75 31.1161 10.6008C31.6131 10.435 32.0438 10.3522 32.4082 10.3522C32.7726 10.3522 32.9962 10.3604 33.0791 10.377C33.1288 10.377 33.1536 10.2527 33.1536 10.0041V8.51233C33.1536 8.16426 33.1205 7.89906 33.0542 7.71674C33.0045 7.61729 32.8472 7.5427 32.5821 7.49297C32.3336 7.44325 32.1597 7.41839 32.0603 7.41839C32.0272 7.41839 32.0106 7.3438 32.0106 7.19462C32.0106 7.02887 32.0272 6.92942 32.0603 6.89627C32.988 6.8134 33.7417 6.68909 34.3214 6.52334C34.9012 6.34101 35.2077 6.25814 35.2408 6.27471C35.2905 6.27471 35.3402 6.30786 35.3899 6.37416C35.4396 6.44046 35.4644 6.49848 35.4644 6.5482C35.3485 7.0123 35.2905 7.55927 35.2905 8.18912V15.8965C35.2905 16.0291 35.2905 16.1451 35.2905 16.2445C35.307 16.344 35.3567 16.4352 35.4396 16.518C35.539 16.6175 35.7874 16.6672 36.185 16.6672C36.2181 16.7335 36.2347 16.8247 36.2347 16.9407C36.2347 17.0401 36.2016 17.1313 36.1353 17.2142C35.8371 17.2308 35.4147 17.3053 34.8681 17.4379C33.8907 17.67 33.3607 17.786 33.2778 17.786C33.195 17.786 33.1536 17.6534 33.1536 17.3882ZM32.11 16.7418C32.3419 16.7418 32.5738 16.6672 32.8057 16.518C33.0376 16.3689 33.1536 16.2445 33.1536 16.1451V11.9185C33.1536 11.7693 33.0294 11.6118 32.7809 11.4461C32.5324 11.2638 32.2508 11.1726 31.9361 11.1726C31.6379 11.1726 31.3977 11.2472 31.2155 11.3964C31.0333 11.529 30.8842 11.7113 30.7682 11.9433C30.5695 12.3909 30.4701 13.0207 30.4701 13.8329C30.4701 14.6285 30.6109 15.3163 30.8925 15.8965C31.1907 16.46 31.5965 16.7418 32.11 16.7418Z" fill="#898888"/>
<path d="M39.5226 16.6423C39.7379 16.6423 39.9035 16.6009 40.0195 16.518C40.152 16.4186 40.2183 16.344 40.2183 16.2943V14.0069C40.0361 14.0898 39.8456 14.1727 39.6468 14.2556C39.4646 14.3219 39.2741 14.4213 39.0753 14.5539C38.7109 14.8025 38.5287 15.134 38.5287 15.5484C38.5452 15.9628 38.6612 16.2528 38.8765 16.4186C39.0919 16.5678 39.3072 16.6423 39.5226 16.6423ZM43.2 16.3937C43.2828 16.4434 43.3242 16.518 43.3242 16.6175C43.3242 16.7169 43.2994 16.8164 43.2497 16.9158C43.1503 17.0153 42.9763 17.1479 42.7279 17.3136C42.2806 17.612 41.9079 17.7612 41.6097 17.7612C41.3116 17.7612 41.0382 17.6783 40.7898 17.5125C40.5579 17.3302 40.4005 17.1396 40.3177 16.9407C40.0858 17.1727 39.7545 17.3716 39.3238 17.5374C38.9097 17.7031 38.5866 17.786 38.3547 17.786C38.1228 17.786 37.8743 17.728 37.6093 17.612C37.3443 17.496 37.1206 17.3468 36.9384 17.1645C36.5243 16.7501 36.3172 16.3357 36.3172 15.9213C36.3172 15.507 36.4001 15.1838 36.5657 14.9517C36.7479 14.7031 36.9301 14.5539 37.1124 14.5042C37.3111 14.4379 37.5348 14.355 37.7832 14.2556C38.0483 14.1561 38.3299 14.0484 38.628 13.9323C39.009 13.7997 39.5391 13.6008 40.2183 13.3356V12.5649C40.2183 12.1505 40.1272 11.7776 39.945 11.4461C39.7627 11.098 39.5226 10.924 39.2244 10.924C38.9262 10.924 38.7109 11.0566 38.5784 11.3218C38.4624 11.587 38.3796 11.8605 38.3299 12.1422C38.1974 12.7224 37.8743 13.0124 37.3608 13.0124C37.1455 13.0124 36.9467 12.9461 36.7645 12.8135C36.5988 12.6644 36.516 12.5069 36.516 12.3411C36.516 12.1091 36.5906 11.8439 36.7396 11.5455C36.9219 11.3632 37.22 11.1643 37.6342 10.9489C38.479 10.5179 39.2327 10.3024 39.8953 10.3024C40.5744 10.3024 41.1459 10.5345 41.6097 10.9986C42.0901 11.4627 42.3303 12.0677 42.3303 12.8135V15.8716C42.3303 16.1037 42.3717 16.2777 42.4546 16.3937C42.5374 16.4932 42.6285 16.5429 42.7279 16.5429C42.8438 16.5429 42.9432 16.518 43.026 16.4683L43.2 16.3937Z" fill="#898888"/>
<path d="M48.8956 17.3882V17.1147C48.8956 17.0484 48.8707 17.0319 48.821 17.065C48.7713 17.0982 48.6802 17.1562 48.5477 17.239C48.4152 17.3219 48.2578 17.4048 48.0756 17.4877C47.2308 17.8689 46.444 17.8772 45.7151 17.5125C44.9697 17.1645 44.4396 16.5678 44.1249 15.7224C43.9592 15.3081 43.8764 14.8108 43.8764 14.2307C43.8764 13.634 44.0255 13.087 44.3236 12.5898C44.6384 12.0759 45.0194 11.6533 45.4666 11.3218C45.9139 10.9903 46.3777 10.75 46.8581 10.6008C47.355 10.435 47.7857 10.3522 48.1502 10.3522C48.5146 10.3522 48.7382 10.3604 48.821 10.377C48.8707 10.377 48.8956 10.2527 48.8956 10.0041V8.51233C48.8956 8.16426 48.8624 7.89906 48.7962 7.71674C48.7465 7.61729 48.5891 7.5427 48.3241 7.49297C48.0756 7.44325 47.9017 7.41839 47.8023 7.41839C47.7692 7.41839 47.7526 7.3438 47.7526 7.19462C47.7526 7.02887 47.7692 6.92942 47.8023 6.89627C48.7299 6.8134 49.4836 6.68909 50.0634 6.52334C50.6432 6.34101 50.9496 6.25814 50.9828 6.27471C51.0325 6.27471 51.0821 6.30786 51.1318 6.37416C51.1815 6.44046 51.2064 6.49848 51.2064 6.5482C51.0904 7.0123 51.0325 7.55927 51.0325 8.18912V15.8965C51.0325 16.0291 51.0325 16.1451 51.0325 16.2445C51.049 16.344 51.0987 16.4352 51.1815 16.518C51.2809 16.6175 51.5294 16.6672 51.927 16.6672C51.9601 16.7335 51.9767 16.8247 51.9767 16.9407C51.9767 17.0401 51.9435 17.1313 51.8773 17.2142C51.5791 17.2308 51.1567 17.3053 50.61 17.4379C49.6327 17.67 49.1026 17.786 49.0198 17.786C48.937 17.786 48.8956 17.6534 48.8956 17.3882ZM47.852 16.7418C48.0839 16.7418 48.3158 16.6672 48.5477 16.518C48.7796 16.3689 48.8956 16.2445 48.8956 16.1451V11.9185C48.8956 11.7693 48.7713 11.6118 48.5229 11.4461C48.2744 11.2638 47.9928 11.1726 47.678 11.1726C47.3799 11.1726 47.1397 11.2472 46.9575 11.3964C46.7753 11.529 46.6262 11.7113 46.5102 11.9433C46.3114 12.3909 46.212 13.0207 46.212 13.8329C46.212 14.6285 46.3529 15.3163 46.6345 15.8965C46.9326 16.46 47.3385 16.7418 47.852 16.7418Z" fill="#898888"/>
</svg>
