<svg width="55" height="55" viewBox="0 0 55 55" fill="none" xmlns="http://www.w3.org/2000/svg">
<path d="M27.5 51.5625C33.8818 51.5625 40.0022 49.0274 44.5148 44.5148C49.0274 40.0022 51.5625 33.8818 51.5625 27.5C51.5625 21.1182 49.0274 14.9978 44.5148 10.4852C40.0022 5.97265 33.8818 3.4375 27.5 3.4375V51.5625ZM27.5 55C20.2065 55 13.2118 52.1027 8.05456 46.9454C2.89731 41.7882 0 34.7935 0 27.5C0 20.2065 2.89731 13.2118 8.05456 8.05456C13.2118 2.89731 20.2065 0 27.5 0C34.7935 0 41.7882 2.89731 46.9454 8.05456C52.1027 13.2118 55 20.2065 55 27.5C55 34.7935 52.1027 41.7882 46.9454 46.9454C41.7882 52.1027 34.7935 55 27.5 55Z" fill="#747070"/>
</svg>
